<svg xmlns:inkscape="http://www.inkscape.org/namespaces/inkscape" xmlns:sodipodi="http://sodipodi.sourceforge.net/DTD/sodipodi-0.dtd" xmlns="http://www.w3.org/2000/svg" xmlns:svg="http://www.w3.org/2000/svg" version="1.0" preserveAspectRatio="xMidYMid meet" id="svg38" sodipodi:docname="uQvgbj01.svg" inkscape:version="1.1 (c68e22c387, 2021-05-23)" viewBox="21.58 85 211.42 104.86">
  <defs id="defs42"/>
  <sodipodi:namedview id="namedview40" pagecolor="#ffffff" bordercolor="#666666" borderopacity="1.0" inkscape:pageshadow="2" inkscape:pageopacity="0.0" inkscape:pagecheckerboard="0" inkscape:document-units="pt" showgrid="false" inkscape:zoom="3.1109914" inkscape:cx="108.00415" inkscape:cy="215.68687" inkscape:window-width="1920" inkscape:window-height="1046" inkscape:window-x="-11" inkscape:window-y="-11" inkscape:window-maximized="1" inkscape:current-layer="svg38"/>
  <metadata id="metadata2">
Created by potrace 1.10, written by Peter Selinger 2001-2011
</metadata>
  <g transform="matrix(0.1,0,0,-0.1,0,254)" fill="#000000" stroke="none" id="g36">
    <path d="m 1740,1663 c -25,-23 -33,-39 -39,-86 -8,-62 -15,-73 -46,-79 -12,-2 -21,-13 -23,-26 -3,-18 3,-26 27,-35 29,-11 31,-14 31,-67 0,-83 8,-102 39,-98 25,3 26,6 31,78 5,78 11,86 73,104 22,7 23,52 1,60 -8,3 -26,3 -40,0 -29,-7 -36,8 -26,56 8,34 10,35 53,35 37,0 44,3 47,21 4,26 -40,64 -74,64 -13,0 -38,-12 -54,-27 z" id="path4" sodipodi:nodetypes="cccccsccccccscsc"/>
    <path d="m 1511,1647 c -31,-18 -50,-54 -51,-94 0,-19 -10,-44 -25,-61 -14,-17 -25,-34 -25,-40 0,-5 11,-17 25,-26 21,-14 25,-25 26,-69 1,-79 11,-102 39,-102 24,0 25,3 30,85 5,83 5,85 32,88 34,4 48,40 23,58 -9,7 -23,10 -29,8 -21,-8 -37,21 -30,55 7,32 7,32 58,29 45,-3 51,-1 54,18 6,44 -78,78 -127,51 z" id="path6" sodipodi:nodetypes="cccsccscccccccc"/>
    <path d="m 2154,1618 c -100,-44 -123,-69 -90,-97 11,-10 30,-6 89,19 81,33 111,58 101,83 -10,27 -28,26 -100,-5 z" id="path8"/>
    <path d="m 983,1612 c -6,-4 -13,-32 -15,-61 -3,-54 -3,-54 -43,-65 -67,-19 -56,-79 14,-74 l 36,3 10,-105 c 9,-97 12,-105 32,-108 29,-4 46,29 39,76 -3,20 -7,62 -8,92 l -3,55 40,5 c 33,4 41,9 43,29 4,29 -12,41 -55,41 -32,0 -33,1 -33,44 0,57 -26,88 -57,68 z m 51,-134 c 14,-20 14,-24 -1,-40 -20,-22 -31,-23 -55,-1 -18,16 -18,17 4,40 27,29 33,29 52,1 z" id="path10"/>
    <path d="m 716,1567 c -50,-28 -81,-84 -72,-132 8,-40 47,-75 86,-75 15,0 41,-5 59,-11 25,-9 31,-17 31,-39 0,-40 -20,-52 -87,-48 -53,3 -58,1 -61,-19 -4,-26 41,-53 88,-53 109,0 170,115 102,191 -22,24 -40,33 -82,40 -66,10 -77,20 -62,54 12,25 34,39 83,49 29,6 42,27 33,51 -9,22 -73,18 -118,-8 z" id="path12"/>
    <path d="m 1213,1486 c -43,-36 -56,-75 -51,-147 4,-53 9,-66 33,-86 24,-21 35,-24 69,-18 23,3 60,6 82,5 27,0 44,5 47,14 7,17 -12,216 -22,236 -6,10 -27,16 -68,18 -52,2 -64,0 -90,-22 z m 119,-21 c 9,-4 13,-17 10,-40 l -4,-35 -19,37 c -10,21 -19,39 -19,40 0,5 17,3 32,-2 z m -38,-47 c 8,-32 -4,-95 -20,-109 -8,-6 -21,-9 -29,-5 -18,6 -21,86 -5,117 15,26 46,24 54,-3 z m 62,-82 c 7,-43 0,-56 -32,-56 -24,0 -32,14 -15,24 4,3 11,19 14,36 9,40 25,38 33,-4 z" id="path14"/>
    <path d="m 221,1452 c -14,-27 -3,-38 74,-71 75,-31 105,-29 105,10 0,15 -16,28 -62,49 -72,34 -103,37 -117,12 z" id="path16"/>
    <path d="m 2141,1267 c -7,-9 -11,-24 -9,-34 3,-14 18,-20 78,-26 94,-10 120,-4 120,28 0,13 -4,26 -8,29 -5,3 -45,8 -88,12 -66,5 -82,4 -93,-9 z" id="path18"/>
    <path d="m 1524,1188 c -18,-28 10,-355 32,-378 24,-25 49,0 52,53 l 3,46 54,-35 c 58,-39 88,-41 93,-7 2,15 -8,29 -35,49 -21,15 -48,37 -61,48 l -23,20 57,53 c 48,44 55,55 44,68 -20,24 -50,18 -95,-20 -23,-19 -45,-31 -49,-28 -3,4 -6,28 -6,55 0,27 -5,58 -10,69 -12,21 -45,26 -56,7 z" id="path20" sodipodi:nodetypes="cccccccccccccscc"/>
    <path d="m 1137,1136 c -14,-35 23,-67 50,-45 8,7 13,22 11,33 -4,26 -52,35 -61,12 z" id="path22"/>
    <path d="m 290,1096 c -55,-19 -65,-26 -68,-48 -5,-39 24,-42 109,-13 41,14 75,25 75,25 10,0 12,36 3,46 -15,19 -42,17 -119,-10 z" id="path24"/>
    <path d="m 1384,1069 c -69,-20 -102,-83 -91,-176 7,-66 41,-97 108,-98 37,0 54,5 62,16 18,29 1,49 -41,49 -50,0 -64,17 -60,72 3,40 6,44 51,67 51,25 62,52 28,71 -11,5 -21,10 -23,9 -2,0 -17,-5 -34,-10 z" id="path26"/>
    <path d="m 1152,1038 c -8,-8 -12,-48 -12,-113 0,-108 11,-140 46,-133 17,3 19,14 22,117 3,112 -4,141 -32,141 -7,0 -17,-5 -24,-12 z" id="path28"/>
    <path d="m 923,1025 c -50,-22 -53,-36 -43,-205 9,-158 17,-183 54,-178 19,3 21,10 21,68 v 65 l 50,25 c 103,51 117,178 25,225 -36,18 -65,18 -107,0 z m 81,-71 c 22,-21 20,-50 -5,-75 -28,-28 -43,-20 -51,27 -5,30 -3,42 10,52 21,16 27,15 46,-4 z" id="path30" sodipodi:nodetypes="cccscccccsccc"/>
    <path d="m 2070,969 c -15,-28 1,-45 74,-80 46,-22 63,-26 78,-18 36,19 18,51 -47,86 -70,38 -90,40 -105,12 z" id="path32"/>
    <path d="m 431,802 c -44,-39 -53,-51 -47,-70 11,-35 46,-27 99,23 49,47 55,63 35,83 -19,19 -30,15 -87,-36 z" id="path34"/>
  </g>
  <path style="fill:#000000;fill-opacity:1;fill-rule:evenodd;stroke-width:2.26772;stroke-linejoin:bevel;paint-order:markers stroke fill" d="m 133.5252,149.08707 c -0.73638,-0.19289 -1.64718,-0.75533 -2.65856,-1.64173 -1.7826,-1.56231 -2.17098,-2.02655 -2.16877,-2.59239 0.003,-0.65125 0.3941,-1.16748 2.72801,-3.59658 2.14668,-2.23423 3.06826,-2.73788 4.08776,-2.23402 0.37192,0.18381 0.93674,0.71182 1.41555,1.32327 0.38701,0.49423 1.36843,1.90464 1.65204,2.37416 0.94356,1.56211 0.86769,2.23885 -0.41398,3.69273 -0.8823,1.00086 -1.54483,1.64364 -2.14789,2.08387 -0.34605,0.25261 -0.92016,0.53161 -1.25525,0.61001 -0.35668,0.0834 -0.87758,0.0753 -1.23891,-0.0193 z" id="path1611" transform="scale(0.75)"/>
  <path style="fill:#000000;fill-opacity:1;fill-rule:evenodd;stroke-width:2.26772;stroke-linejoin:bevel;paint-order:markers stroke fill" d="m 133.58742,177.3249 c -0.62749,-0.85427 -1.05394,-2.61795 -1.49375,-6.17769 -0.2285,-1.84941 -0.37645,-3.32999 -1.24646,-12.47318 -0.45405,-4.77189 -0.82981,-8.68026 -0.835,-8.68526 -0.005,-0.005 -1.06718,0.0826 -2.35998,0.19472 -2.13327,0.18498 -2.45824,0.20395 -3.51576,0.20526 -1.0071,0.001 -1.24156,-0.0105 -1.72774,-0.0868 -1.57655,-0.24731 -2.78246,-0.74224 -3.69227,-1.51539 -0.57032,-0.48466 -1.05538,-1.24263 -1.23396,-1.92824 -0.10679,-0.41002 -0.11707,-1.11578 -0.0224,-1.53659 0.42747,-1.89956 2.29203,-3.55449 5.08924,-4.51707 0.18784,-0.0646 0.87492,-0.26928 1.52684,-0.45474 1.45371,-0.41357 2.14794,-0.64907 2.67198,-0.9064 1.49607,-0.73462 1.92603,-1.69882 2.16731,-4.86023 0.0329,-0.43093 0.0882,-1.2717 0.12287,-1.86837 0.10354,-1.78082 0.25163,-3.10653 0.50146,-4.48905 0.0668,-0.36956 0.12142,-0.68154 0.12142,-0.69329 0,-0.0117 1.86687,-0.0168 4.14859,-0.0111 l 4.1486,0.0102 0.0923,0.32144 c 0.12882,0.44869 0.3508,1.59089 0.42558,2.18982 0.11682,0.93564 0.14924,1.58229 0.18533,3.69657 0.0446,2.61273 0.10911,3.22399 0.40588,3.84583 0.41758,0.87496 1.15209,1.09577 3.64807,1.09671 3.82238,0.001 5.94411,0.5803 6.98278,1.90505 0.71123,0.90713 0.90223,2.08873 0.63251,3.91309 -0.26046,1.76174 -0.98415,2.51337 -2.88992,3.00148 -0.81089,0.2077 -1.72618,0.34611 -5.04097,0.76233 -1.68968,0.21217 -3.07573,0.38951 -3.08012,0.39409 -0.004,0.005 0.071,1.44578 0.16753,3.20265 0.0965,1.75688 0.20367,3.80004 0.23809,4.54036 0.19935,4.28831 0.50372,7.67537 1.10307,12.27502 0.15859,1.21706 0.19809,2.30215 0.12139,3.33495 -0.16793,2.26149 -0.81972,4.03476 -1.90703,5.18824 l -0.24147,0.25617 h -2.55905 -2.55904 z m 1.46813,-28.25573 c 0.68056,-0.23755 1.33875,-0.72911 2.31024,-1.72537 1.42925,-1.4657 1.84051,-2.07941 1.88699,-2.81592 0.0403,-0.63924 -0.20765,-1.21299 -1.09822,-2.54085 -1.83734,-2.73949 -2.65218,-3.41457 -3.77006,-3.12341 -0.78173,0.20362 -1.63729,0.91109 -3.5293,2.91842 -1.59205,1.6891 -1.94657,2.12902 -2.12673,2.63905 -0.11444,0.32397 -0.0862,0.71804 0.0724,1.01206 0.14705,0.2725 0.6994,0.85291 1.50322,1.57958 1.30647,1.18109 2.16572,1.77689 2.9376,2.03691 0.4054,0.13657 0.54771,0.15595 1.04023,0.14167 0.37545,-0.0109 0.52047,-0.0338 0.7736,-0.12214 z" id="path1650" transform="scale(0.75)"/>
  <path style="fill:#000000;fill-opacity:1;fill-rule:evenodd;stroke-width:2.26772;stroke-linejoin:bevel;paint-order:markers stroke fill" d="m 133.58627,177.3249 c -0.52552,-0.70699 -0.93169,-2.17289 -1.29161,-4.66158 -0.31269,-2.16214 -0.44334,-3.42485 -1.46842,-14.19142 -0.44387,-4.66207 -0.81074,-8.48003 -0.81526,-8.48436 -0.005,-0.004 -1.06595,0.0838 -2.35875,0.19574 -2.10628,0.18244 -2.46953,0.20388 -3.49567,0.20631 -1.20117,0.003 -1.60802,-0.0335 -2.49117,-0.22258 -0.82964,-0.17761 -1.75566,-0.55123 -2.39795,-0.96749 -1.35083,-0.87547 -2.04985,-2.24217 -1.84776,-3.61271 0.24339,-1.65062 1.57533,-3.15774 3.70516,-4.19247 0.84617,-0.41109 1.44502,-0.62341 2.95136,-1.04639 2.23465,-0.6275 3.05612,-0.98041 3.63912,-1.5634 0.84435,-0.84435 1.08276,-1.94107 1.32385,-6.08971 0.10998,-1.89255 0.25651,-3.15948 0.54722,-4.7314 l 0.0836,-0.45221 4.14421,0.0102 4.1442,0.0102 0.0923,0.32144 c 0.12986,0.45231 0.35214,1.59472 0.42607,2.18982 0.11907,0.95837 0.14891,1.54982 0.18531,3.67241 0.0201,1.17349 0.0567,2.30539 0.0813,2.51533 0.17975,1.53368 0.57803,2.07991 1.6861,2.31237 0.42871,0.0899 1.23579,0.13859 2.30615,0.139 4.30851,0.002 6.48905,0.74695 7.33708,2.50775 0.39792,0.82622 0.47593,1.82783 0.25782,3.31039 -0.25899,1.76046 -0.98383,2.51336 -2.88962,3.00148 -0.81089,0.2077 -1.72618,0.34611 -5.04097,0.76233 -1.68968,0.21217 -3.0755,0.38951 -3.0796,0.39409 -0.004,0.005 0.0797,1.60851 0.18615,3.56427 0.10649,1.95577 0.21382,3.99893 0.23852,4.54036 0.17623,3.86323 0.50623,7.49205 1.08336,11.9134 0.47888,3.66862 -0.14386,6.70587 -1.73771,8.47514 l -0.27405,0.30422 h -2.56665 -2.56665 z m 1.24173,-28.19637 c 0.75396,-0.19056 1.32707,-0.5857 2.38813,-1.64654 1.48669,-1.4864 1.9827,-2.19648 2.03715,-2.91639 0.0557,-0.73697 -0.289,-1.4483 -1.61891,-3.34043 -1.44722,-2.05903 -2.22787,-2.62774 -3.2438,-2.36312 -0.76215,0.19851 -1.60722,0.88761 -3.37587,2.75277 -1.53317,1.61684 -1.93407,2.09247 -2.20139,2.61171 -0.12104,0.23511 -0.13455,0.29524 -0.13547,0.6027 -8.7e-4,0.29402 0.0146,0.37343 0.11159,0.57084 0.18186,0.37033 1.1579,1.34142 2.35847,2.34651 1.475,1.23483 2.59628,1.65589 3.6801,1.38195 z" id="path1689" transform="scale(0.75)"/>
  <path style="fill:#000000;fill-opacity:1;fill-rule:evenodd;stroke-width:2.26772;stroke-linejoin:bevel;paint-order:markers stroke fill" d="m 133.55564,177.28472 c -0.58673,-0.80728 -1.02481,-2.61879 -1.44051,-5.9567 -0.2667,-2.14159 -0.33068,-2.78041 -1.32975,-13.27821 -0.42161,-4.43013 -0.77018,-8.05802 -0.77459,-8.06198 -0.004,-0.004 -1.05672,0.0836 -2.33847,0.19458 -2.05993,0.17836 -2.46337,0.20236 -3.47558,0.20675 -0.73747,0.003 -1.28102,-0.0135 -1.52684,-0.0468 -2.06691,-0.28018 -3.61126,-1.0082 -4.48638,-2.11491 -0.7865,-0.99463 -0.99666,-2.12934 -0.6108,-3.2978 0.43837,-1.32748 1.63871,-2.56124 3.33465,-3.42749 0.89792,-0.45865 1.47967,-0.67169 3.10259,-1.13623 1.36431,-0.39051 1.88365,-0.55693 2.36729,-0.75858 1.39378,-0.58113 1.95242,-1.27071 2.25862,-2.78803 0.17098,-0.84724 0.27287,-1.88974 0.40312,-4.12451 0.11043,-1.89474 0.25686,-3.1604 0.5474,-4.7314 l 0.0836,-0.45221 4.14421,0.0102 4.1442,0.0102 0.0923,0.32144 c 0.12994,0.45258 0.35218,1.595 0.42601,2.18982 0.1184,0.95395 0.14698,1.51484 0.18526,3.6363 0.0462,2.56211 0.0805,2.96765 0.30745,3.63907 0.25761,0.76212 0.72679,1.11286 1.697,1.26859 0.22155,0.0356 0.98778,0.0691 2.13371,0.0933 0.9834,0.0208 1.9869,0.0568 2.22999,0.0799 2.3997,0.22891 3.83959,0.78743 4.64817,1.80298 0.73168,0.91896 0.92479,2.08458 0.65226,3.93707 -0.25928,1.76245 -0.98167,2.51281 -2.88962,3.00148 -0.81089,0.2077 -1.72618,0.34611 -5.04097,0.76233 -1.68968,0.21217 -3.07542,0.38951 -3.07942,0.39409 -0.004,0.005 0.0716,1.44578 0.16791,3.20265 0.0964,1.75688 0.20251,3.78196 0.23591,4.50018 0.18925,4.07008 0.56609,8.34513 1.04304,11.83304 0.17205,1.25823 0.20294,1.69072 0.20089,2.81261 -0.002,1.13892 -0.0546,1.75113 -0.21984,2.5651 -0.30685,1.51104 -0.87014,2.72621 -1.66528,3.5925 l -0.26739,0.29131 h -2.56802 -2.56802 z m 1.27236,-28.15706 c 0.85221,-0.21773 1.67808,-0.84065 2.98053,-2.2481 1.87226,-2.02318 1.90225,-2.60778 0.25771,-5.02366 -1.38435,-2.03363 -2.05688,-2.75143 -2.79243,-2.98036 -0.76307,-0.23749 -1.51169,0.0951 -2.75096,1.22213 -0.71467,0.64994 -2.87296,2.9404 -3.32813,3.53194 -0.60225,0.78267 -0.69032,1.37115 -0.29186,1.95028 0.37009,0.53791 2.08038,2.10214 3.00846,2.75154 1.10634,0.77412 2.02338,1.02447 2.91668,0.79623 z" id="path1728" transform="scale(0.75)"/>
  <path style="fill:#000000;fill-opacity:1;fill-rule:evenodd;stroke-width:2.26772;stroke-linejoin:bevel;paint-order:markers stroke fill" d="m 133.55564,177.28472 c -0.60352,-0.83038 -1.04912,-2.71542 -1.4813,-6.2664 -0.23507,-1.93143 -0.3338,-2.92542 -1.3501,-13.59262 -0.38951,-4.08833 -0.71119,-7.43554 -0.71484,-7.43824 -0.004,-0.003 -1.04629,0.0851 -2.31699,0.19521 -2.05818,0.17829 -2.43973,0.20075 -3.49567,0.20582 -0.78851,0.004 -1.30637,-0.0118 -1.54693,-0.0465 -1.39787,-0.20163 -2.52409,-0.5785 -3.35504,-1.12267 -1.34914,-0.88353 -2.0497,-2.19373 -1.89127,-3.53707 0.18634,-1.58004 1.40895,-3.06615 3.3938,-4.12525 0.8722,-0.4654 1.54835,-0.71379 3.35727,-1.23332 1.47268,-0.42296 2.11972,-0.64796 2.66252,-0.92585 1.26381,-0.64702 1.71418,-1.46386 1.97886,-3.58905 0.0717,-0.5757 0.15925,-1.70618 0.24274,-3.13405 0.10262,-1.75512 0.27418,-3.25296 0.52811,-4.61067 l 0.10332,-0.55248 h 4.14829 4.14829 l 0.14519,0.59266 c 0.40502,1.65325 0.4945,2.55611 0.55037,5.55308 0.0373,2.00267 0.0673,2.57823 0.16157,3.10229 0.14655,0.8147 0.47107,1.33664 0.98109,1.57792 0.5377,0.25437 0.93856,0.29956 3.05549,0.34446 0.95026,0.0202 1.92663,0.0555 2.16972,0.0785 2.39749,0.22692 3.83854,0.78579 4.64817,1.80265 0.70866,0.89004 0.91731,2.05642 0.67691,3.78394 -0.22542,1.61991 -0.74668,2.35866 -2.02914,2.87579 -0.90636,0.36547 -1.81352,0.52491 -5.92645,1.04161 -1.68987,0.2123 -3.07533,0.38959 -3.07881,0.39398 -0.003,0.004 0.0721,1.44543 0.16803,3.2023 0.0959,1.75688 0.20222,3.78196 0.23628,4.50018 0.18868,3.9779 0.52259,7.83589 0.98591,11.39106 0.24828,1.90511 0.25732,2.01833 0.25669,3.21441 -4.3e-4,0.8176 -0.0193,1.27258 -0.0689,1.66497 -0.24762,1.95623 -0.86529,3.49847 -1.81541,4.53281 l -0.26759,0.29131 h -2.56802 -2.56802 z m 1.17083,-28.13315 c 0.88972,-0.18862 1.81687,-0.88192 3.17106,-2.37128 0.63631,-0.69982 0.9262,-1.07999 1.12231,-1.47181 0.49367,-0.98633 0.29175,-1.6475 -1.13418,-3.71375 -0.94745,-1.3729 -1.63136,-2.17374 -2.1216,-2.48435 -0.85415,-0.54115 -1.63993,-0.36816 -2.82096,0.62104 -0.92553,0.77519 -3.40301,3.38873 -3.89285,4.10663 -0.46553,0.68227 -0.50848,1.21188 -0.1421,1.75217 0.16636,0.24533 1.04775,1.12074 1.71741,1.70578 1.82001,1.59 2.94736,2.1001 4.10091,1.85557 z" id="path1767" transform="scale(0.75)"/>
  <path style="fill:#000000;fill-opacity:1;fill-rule:evenodd;stroke-width:2.26772;stroke-linejoin:bevel;paint-order:markers stroke fill" d="m 133.51065,177.2241 c -0.59032,-0.91694 -0.99998,-2.66501 -1.41468,-6.03671 -0.26523,-2.15636 -0.27225,-2.22687 -1.41088,-14.16349 -0.3668,-3.84524 -0.67942,-7.00192 -0.6947,-7.01485 -0.0153,-0.0129 -0.61544,0.027 -1.33366,0.0886 -3.4209,0.29382 -3.95238,0.32674 -4.88188,0.3024 -1.21959,-0.0319 -2.0072,-0.15677 -2.96133,-0.46937 -2.28454,-0.74848 -3.62573,-2.41944 -3.41002,-4.24845 0.21148,-1.79324 1.76916,-3.46845 4.19023,-4.5064 0.67141,-0.28785 1.13876,-0.44422 2.48247,-0.83065 2.21146,-0.63598 2.91777,-0.92885 3.51576,-1.45779 0.92367,-0.81701 1.19905,-1.95841 1.42622,-5.91133 0.11685,-2.03319 0.26625,-3.37729 0.54448,-4.89847 0.0542,-0.29641 0.0986,-0.54503 0.0986,-0.55248 0,-0.007 1.86873,-0.0135 4.15273,-0.0135 h 4.15273 l 0.14521,0.59266 c 0.40444,1.65071 0.4924,2.53115 0.54937,5.49902 0.0495,2.57845 0.10111,3.17362 0.32777,3.77942 0.0979,0.26175 0.33081,0.61067 0.50236,0.75269 0.19168,0.15868 0.60079,0.33327 0.94337,0.4026 0.41997,0.085 1.41104,0.1433 2.44572,0.1439 4.16137,0.002 6.35393,0.76599 7.19019,2.50403 0.3878,0.80598 0.476,1.78589 0.28454,3.16115 -0.2258,1.62192 -0.74522,2.35807 -2.02916,2.87579 -0.90181,0.36364 -1.79561,0.52119 -5.90765,1.04135 -1.67952,0.21246 -3.0645,0.39891 -3.07771,0.41434 -0.0132,0.0154 0.0535,1.44743 0.14818,3.1822 0.0947,1.73478 0.20091,3.75082 0.23599,4.48009 0.21347,4.43653 0.52244,7.8792 1.10343,12.29511 0.48271,3.66892 -0.15807,6.8007 -1.74493,8.52823 l -0.26759,0.29131 -2.57831,-4.1e-4 -2.57832,-4e-4 -0.14851,-0.23068 z m 1.23337,-28.07593 c 0.8123,-0.17125 1.72506,-0.83619 2.93798,-2.14032 1.69474,-1.82216 1.89324,-2.43737 1.21974,-3.78027 -0.3663,-0.73036 -1.50683,-2.39707 -2.21716,-3.24005 -0.84637,-1.00442 -1.55176,-1.34001 -2.32738,-1.10724 -0.6961,0.20891 -1.21056,0.60686 -2.64718,2.0477 -1.78852,1.79378 -2.63501,2.76546 -2.90857,3.33872 -0.10759,0.22548 -0.12452,0.3051 -0.12385,0.58261 9.7e-4,0.39896 0.0968,0.60278 0.49703,1.05697 0.56136,0.63704 2.07098,1.96307 2.79552,2.45553 1.07797,0.73269 1.90984,0.96851 2.77387,0.78635 z" id="path1806" transform="scale(0.75)"/>
  <path style="fill:#000000;fill-opacity:1;fill-rule:evenodd;stroke-width:2.26772;stroke-linejoin:bevel;paint-order:markers stroke fill" d="m 133.51261,177.2241 c -0.2101,-0.33072 -0.28972,-0.50142 -0.45398,-0.97335 -0.36778,-1.05658 -0.65818,-2.5815 -0.96425,-5.06336 -0.22014,-1.78506 -0.37925,-3.35352 -0.9864,-9.72359 -0.31068,-3.25961 -0.67305,-7.04759 -0.80527,-8.41773 -0.13221,-1.37015 -0.25187,-2.61322 -0.26589,-2.76239 l -0.0255,-0.27121 -0.165,1.2e-4 c -0.0907,8e-5 -1.0148,0.0714 -2.05346,0.15854 -2.84684,0.23884 -3.16723,0.25688 -4.07828,0.22964 -0.88422,-0.0264 -1.38107,-0.0851 -2.11696,-0.2502 -3.11454,-0.69854 -4.80636,-2.89128 -4.02669,-5.21894 0.49519,-1.47838 1.89514,-2.8086 3.89778,-3.70363 0.66226,-0.29599 1.19521,-0.47706 2.5874,-0.87911 2.42658,-0.70077 3.10337,-1.00171 3.71803,-1.65328 0.77844,-0.82519 1.0085,-1.88575 1.24503,-5.7396 0.1374,-2.23856 0.28378,-3.53758 0.5628,-4.99442 0.0436,-0.22764 0.0793,-0.42201 0.0793,-0.43194 0,-0.01 1.86969,-0.0181 4.15486,-0.0181 h 4.15487 l 0.1427,0.59266 c 0.40704,1.69049 0.48866,2.50718 0.54813,5.48498 0.0489,2.44864 0.0912,3.02112 0.26658,3.61238 0.20455,0.68943 0.64331,1.11867 1.32353,1.29483 0.42663,0.11049 0.93501,0.1459 2.64868,0.18449 1.66175,0.0374 2.58306,0.0995 3.29477,0.22186 2.06854,0.35574 3.2654,1.05332 3.85693,2.24798 0.33658,0.67978 0.45522,1.44149 0.38015,2.44071 -0.21373,2.84449 -1.00692,3.62395 -4.23836,4.16496 -0.39708,0.0665 -1.30056,0.19448 -2.00773,0.28445 -3.85753,0.49077 -4.76714,0.60544 -4.80261,0.60544 -0.0611,0 -0.0507,0.28663 0.13993,3.8372 0.0985,1.83423 0.1986,3.74178 0.22253,4.23901 0.17901,3.71913 0.53988,7.80968 0.98366,11.14998 0.22166,1.66845 0.23912,1.8971 0.23773,3.11396 -9.6e-4,0.84482 -0.0194,1.28211 -0.0701,1.66747 -0.25933,1.96772 -0.87372,3.49575 -1.81389,4.51122 l -0.26878,0.29031 -2.57781,-4.1e-4 -2.57781,-4e-4 -0.14655,-0.23068 z m 1.20297,-28.07852 c 0.71584,-0.14627 1.48647,-0.65254 2.44155,-1.60402 0.96591,-0.96227 1.62308,-1.7488 1.8702,-2.23835 0.4553,-0.90194 0.27484,-1.57938 -0.88188,-3.31058 -1.91578,-2.86723 -2.74992,-3.5082 -3.96851,-3.04952 -0.62036,0.2335 -1.35467,0.83187 -2.66742,2.1736 -1.6246,1.66047 -2.42892,2.59161 -2.6845,3.10774 -0.13466,0.27193 -0.14802,0.32881 -0.1463,0.62279 0.002,0.40573 0.0888,0.58688 0.50926,1.06722 0.31989,0.36547 1.20692,1.19107 1.89099,1.76003 1.53216,1.27435 2.56155,1.69076 3.63661,1.47109 z" id="path1845" transform="scale(0.75)"/>
  <path style="fill:#000000;fill-opacity:1;fill-rule:evenodd;stroke-width:2.26772;stroke-linejoin:bevel;paint-order:markers stroke fill" d="m 133.51261,177.2241 c -0.20976,-0.33018 -0.28937,-0.5007 -0.45544,-0.97544 -0.45217,-1.29268 -0.82972,-3.57739 -1.24474,-7.53235 -0.0789,-0.75137 -0.47682,-4.85577 -0.88438,-9.12089 -0.40756,-4.26511 -0.781,-8.1661 -0.82986,-8.66886 l -0.0888,-0.91409 h -0.14144 c -0.0778,0 -0.89292,0.0628 -1.8114,0.13961 -3.34694,0.27981 -4.0155,0.30924 -5.025,0.22121 -2.91008,-0.25378 -4.975,-1.5342 -5.51974,-3.42269 -0.60489,-2.09699 0.96399,-4.37621 3.93299,-5.71372 0.64053,-0.28855 1.31107,-0.51643 2.68092,-0.91111 2.36184,-0.68049 3.05524,-0.99211 3.65925,-1.6445 0.7729,-0.83479 0.99315,-1.86104 1.23307,-5.74535 0.0896,-1.45108 0.16746,-2.33375 0.28521,-3.2345 0.0718,-0.54911 0.29007,-1.87993 0.34436,-2.09941 l 0.0224,-0.0904 h 4.15051 4.15051 l 0.1442,0.59266 c 0.40048,1.64597 0.48681,2.50296 0.54677,5.42789 0.0225,1.09746 0.0596,2.23034 0.0823,2.51751 0.14123,1.77953 0.65702,2.39296 2.14527,2.55141 0.21987,0.0234 1.142,0.0599 2.04918,0.081 2.30762,0.0537 3.03806,0.1272 4.20869,0.42326 2.39837,0.60655 3.47778,2.07675 3.2871,4.47713 -0.0905,1.13887 -0.21864,1.72181 -0.50383,2.29147 -0.554,1.10663 -1.68447,1.60795 -4.51885,2.00394 -0.47513,0.0664 -2.0301,0.2682 -3.45549,0.4485 -1.42539,0.18029 -2.60038,0.33632 -2.6111,0.34673 -0.0107,0.0104 0.0492,1.31501 0.13316,2.89911 0.084,1.5841 0.19647,3.73903 0.25002,4.78874 0.21898,4.292 0.49723,7.54111 0.94626,11.04953 0.23862,1.86442 0.27445,2.2305 0.30286,3.09387 0.0934,2.83908 -0.59455,5.25733 -1.89529,6.66225 l -0.26748,0.28891 -2.57781,-4.1e-4 -2.57781,-4e-4 -0.14655,-0.23068 z m 1.43231,-28.13661 c 0.79689,-0.24778 1.6728,-0.92282 2.82044,-2.17366 0.70591,-0.76939 1.0653,-1.23391 1.25534,-1.62253 0.4534,-0.92721 0.29247,-1.53891 -0.86153,-3.27468 -0.90376,-1.35938 -1.61017,-2.25606 -2.10488,-2.67184 -0.94551,-0.79465 -1.74575,-0.7102 -3.01792,0.31848 -0.4173,0.33742 -1.47143,1.37547 -2.36942,2.33327 -1.26418,1.34838 -1.63225,1.79733 -1.85973,2.26845 -0.17129,0.35476 -0.18002,0.75388 -0.0238,1.08659 0.14127,0.3008 0.54982,0.75578 1.28084,1.4264 1.65208,1.51557 2.61556,2.15711 3.55468,2.36689 0.37554,0.0839 0.9518,0.059 1.32594,-0.0574 z" id="path1884" transform="scale(0.75)"/>
  <path style="fill:#000000;fill-opacity:1;fill-rule:evenodd;stroke-width:2.26772;stroke-linejoin:bevel;paint-order:markers stroke fill" d="m 185.47142,232.54701 c -4.64848,-0.54228 -7.05248,-1.50026 -9.19496,-3.66416 -2.42245,-2.44667 -3.58749,-5.85274 -3.97545,-11.6225 -0.66725,-9.92342 3.04385,-17.29128 10.22166,-20.29366 1.8736,-0.7837 6.51058,-2.12141 6.96204,-2.00846 0.73994,0.18512 3.28949,1.49258 3.88776,1.99372 1.70822,1.43087 1.62617,3.36478 -0.22092,5.20738 -1.14446,1.14169 -2.28975,1.89255 -5.42189,3.55468 -3.14355,1.66817 -3.77929,2.08921 -4.65246,3.08118 -0.81394,0.92469 -1.22717,2.17678 -1.45675,4.41401 -0.3697,3.60264 -0.13147,6.35386 0.68954,7.96323 1.01772,1.99496 2.67944,2.66604 7.27362,2.93742 2.72629,0.16104 3.77491,0.3937 4.81436,1.06816 1.0569,0.68578 1.44067,1.38935 1.43569,2.63211 -0.004,0.88537 -0.0906,1.21636 -0.53935,2.05023 -0.77287,1.43621 -1.89219,2.08438 -4.2313,2.45025 -1.16146,0.18166 -4.75755,0.33371 -5.59159,0.23641 z" id="path2157" transform="scale(0.75)"/>
  <path style="fill:#000000;fill-opacity:1;fill-rule:evenodd;stroke-width:2.26772;stroke-linejoin:bevel;paint-order:markers stroke fill" d="" id="path2274" transform="scale(0.75)"/>
  <path style="fill:#000000;fill-opacity:1;fill-rule:evenodd;stroke-width:2.26771;stroke-linejoin:bevel;paint-order:markers stroke fill" d="m 175.88487,167.93818 c -1.7919,-0.17648 -2.84045,-1.04508 -2.4345,-2.01667 0.10634,-0.25451 0.59422,-0.76995 0.93698,-0.98989 0.14708,-0.0944 0.35076,-0.28766 0.45263,-0.4295 0.45093,-0.62792 1.08933,-2.27692 1.39643,-3.60704 0.37692,-1.63255 0.45606,-1.93832 0.63974,-2.47181 0.23651,-0.68692 0.62776,-1.46181 0.89678,-1.7761 0.25459,-0.29743 0.65037,-0.49434 0.89519,-0.44538 0.91245,0.18249 1.78519,2.16608 2.1981,4.99589 0.2611,1.78942 0.29261,3.2869 0.0881,4.18644 -0.33753,1.48455 -1.28457,2.275 -2.98384,2.49046 -0.70972,0.09 -1.55576,0.11578 -2.0856,0.0636 z" id="path3073" transform="scale(0.75)"/>
  <path style="fill:#000000;fill-opacity:1;fill-rule:evenodd;stroke-width:2.26771;stroke-linejoin:bevel;paint-order:markers stroke fill" d="m 164.51352,174.29911 c -1.71486,-0.15145 -2.97385,-0.83271 -5.35155,-2.89582 -2.89026,-2.50786 -3.56881,-4.16215 -4.08877,-9.96839 -0.19252,-2.14976 -0.24691,-3.57357 -0.21267,-5.56713 0.0326,-1.89962 0.0665,-2.37514 0.27129,-3.80871 0.63234,-4.42647 2.5414,-7.89935 6.03765,-10.98339 2.69884,-2.38066 4.10012,-3.09089 6.77169,-3.43217 0.72525,-0.0926 4.73982,-0.0893 6.25056,0.005 4.35127,0.27225 6.85914,0.83537 8.07203,1.81249 0.41733,0.33621 0.5919,0.66579 0.81872,1.54571 0.91613,3.55394 2.25678,15.66662 2.73585,24.71812 0.0882,1.66666 0.0881,4.74763 -1.1e-4,5.254 -0.16036,0.91993 -0.69294,1.40686 -1.984,1.81393 -1.15155,0.36308 -2.41092,0.489 -4.89772,0.48968 -2.61036,7.2e-4 -4.82764,0.11468 -7.8132,0.40154 -1.22433,0.11764 -2.97706,0.32684 -3.03562,0.36232 -0.0726,0.044 -1.94484,0.25168 -2.47624,0.27472 -0.31253,0.0136 -0.80658,0.004 -1.09789,-0.0221 z m 14.05359,-6.46814 c 1.34463,-0.31951 2.08962,-1.02955 2.41827,-2.3048 0.30886,-1.1985 0.14611,-3.80867 -0.37204,-5.96644 -0.70082,-2.91851 -1.76819,-4.07978 -2.8008,-3.04717 -0.60866,0.60866 -1.10031,1.88824 -1.57472,4.0984 -0.29351,1.3674 -0.95364,3.11494 -1.4482,3.83375 -0.0988,0.14361 -0.28457,0.32734 -0.41281,0.40829 -0.39136,0.24706 -0.79139,0.65812 -0.93159,0.95729 -0.52136,1.11251 0.57058,2.06215 2.50802,2.18119 0.84789,0.0521 2.02276,-0.02 2.61387,-0.16051 z m -10.47607,-2.86971 c 0.86965,-0.18433 1.73904,-0.6656 2.17164,-1.20216 0.3745,-0.4645 1.00685,-1.76584 1.33648,-2.75038 1.29676,-3.87317 1.6925,-9.2443 0.86146,-11.69202 -0.22301,-0.65684 -0.47033,-1.04933 -0.99641,-1.58126 -0.70672,-0.71457 -1.36318,-0.98746 -2.37838,-0.98868 -1.1251,-0.001 -2.05614,0.41302 -2.92205,1.3005 -1.10355,1.13105 -1.72088,2.9048 -2.09829,6.02903 -0.1444,1.19542 -0.14408,4.79341 5.1e-4,5.96644 0.23518,1.90753 0.59957,3.2186 1.13163,4.07155 0.26629,0.42688 0.5094,0.61927 1.00248,0.79333 0.4499,0.15881 1.28324,0.18245 1.89091,0.0537 z m 10.645,-14.33087 c 0.36042,-3.154 0.40195,-3.758 0.31596,-4.5946 -0.11046,-1.07463 -0.34871,-1.74968 -0.79743,-2.25946 -0.30097,-0.34192 -0.65373,-0.50746 -1.59104,-0.74661 -2.05901,-0.52536 -3.44685,-0.49115 -3.33219,0.0821 0.0943,0.47145 4.98163,10.29994 5.07524,10.20634 0.0139,-0.0139 0.16211,-1.22337 0.32946,-2.68779 z" id="path3112" transform="scale(0.75)"/>
  <path style="fill:#000000;fill-opacity:1;fill-rule:evenodd;stroke-width:2.26771;stroke-linejoin:bevel;paint-order:markers stroke fill" d="m 164.50889,174.29916 c -1.70168,-0.15133 -2.96755,-0.83246 -5.2901,-2.84647 -1.7138,-1.48613 -2.4554,-2.45124 -3.06745,-3.992 -0.59849,-1.5066 -1.03749,-4.47482 -1.25656,-8.49606 -0.0844,-1.54915 -0.0368,-4.67003 0.0882,-5.78901 0.43641,-3.90451 1.52728,-6.74274 3.62334,-9.42719 1.12663,-1.44289 3.27636,-3.43028 4.9046,-4.53423 1.30851,-0.88717 2.56402,-1.3323 4.43021,-1.5707 0.3857,-0.0493 1.30752,-0.0709 2.86958,-0.0674 6.96382,0.0156 11.1429,0.87845 11.94609,2.4666 0.53671,1.06124 1.26111,5.6195 1.99995,12.58464 0.70548,6.65066 1.12402,12.63754 1.1282,16.13781 0.002,1.99566 -0.0415,2.43634 -0.28736,2.88813 -0.40296,0.74037 -1.57911,1.2409 -3.56429,1.51684 -0.25002,0.0348 -1.79703,0.0854 -3.4378,0.11265 -1.64078,0.0272 -3.37957,0.0765 -3.86399,0.10964 -2.58263,0.17645 -5.25003,0.43551 -6.44944,0.62637 -1.67659,0.2668 -2.90218,0.35789 -3.77321,0.28043 z m 13.62969,-6.38879 c 1.63581,-0.26529 2.48012,-0.97684 2.84947,-2.40144 0.15029,-0.57969 0.19992,-1.80284 0.11342,-2.79551 -0.39064,-4.48301 -1.73262,-7.30423 -3.04551,-6.40248 -0.71941,0.49412 -1.29577,1.8569 -1.8186,4.30002 -0.29164,1.3628 -0.95273,3.11428 -1.44617,3.83147 -0.0979,0.14235 -0.32495,0.35856 -0.50446,0.48047 -1.15643,0.78531 -1.29684,1.82359 -0.33589,2.48377 0.32078,0.22037 0.7386,0.3841 1.27244,0.49861 0.54127,0.1161 2.21278,0.11902 2.9153,0.005 z m -9.95206,-2.9813 c 0.52518,-0.1259 1.17262,-0.40596 1.56904,-0.67871 1.28021,-0.8808 2.61386,-4.82091 3.01098,-8.89555 0.3049,-3.12834 0.0672,-5.60247 -0.65652,-6.83258 -0.29149,-0.49547 -1.02777,-1.20861 -1.46975,-1.42358 -0.95483,-0.46439 -2.10718,-0.48013 -3.09719,-0.0423 -1.02924,0.45518 -1.97781,1.47768 -2.47522,2.66813 -0.69779,1.66999 -1.06314,3.87629 -1.11586,6.73839 -0.069,3.74455 0.4081,6.49077 1.35845,7.81981 0.2236,0.3127 0.44506,0.46796 0.89311,0.62613 0.49442,0.17454 1.30489,0.18283 1.98296,0.0203 z m 10.55993,-14.32768 c 0.37076,-3.18176 0.41446,-4.30699 0.20523,-5.28411 -0.20929,-0.97745 -0.64098,-1.664 -1.22473,-1.94779 -0.37373,-0.18168 -1.64381,-0.5078 -2.43447,-0.62509 -1.31155,-0.19456 -2.04621,-0.0579 -1.96166,0.36486 0.0918,0.4591 4.98513,10.29955 5.07628,10.2084 0.0142,-0.0142 0.16692,-1.23653 0.33935,-2.71627 z" id="path3151" transform="scale(0.75)"/>
  <path style="fill:#000000;fill-opacity:1;fill-rule:evenodd;stroke-width:2.26771;stroke-linejoin:bevel;paint-order:markers stroke fill" d="m 164.5072,174.29903 c -1.70407,-0.15146 -2.96664,-0.83126 -5.28841,-2.84741 -1.44746,-1.25693 -2.11247,-2.03136 -2.66048,-3.09822 -0.83825,-1.63191 -1.21689,-3.53754 -1.58354,-7.96973 -0.12679,-1.53272 -0.14479,-5.7621 -0.0293,-6.87562 0.426,-4.10596 1.51696,-7.01997 3.64823,-9.74458 1.14349,-1.46185 3.28306,-3.44131 4.91721,-4.54927 1.29245,-0.87628 2.5194,-1.32162 4.23133,-1.53584 1.88013,-0.23527 6.66804,-0.11652 9.46108,0.23464 2.22602,0.27988 3.84861,0.73248 4.76083,1.32799 0.68732,0.44868 0.85716,0.72541 1.14388,1.86379 0.90604,3.59727 2.27364,16.00952 2.70956,24.59186 0.0891,1.75502 0.0894,4.77098 4e-4,5.28242 -0.085,0.48884 -0.29902,0.89289 -0.60616,1.14457 -0.33734,0.27643 -1.10149,0.61663 -1.75797,0.78266 -1.11296,0.28149 -1.67114,0.32497 -4.82997,0.37627 -1.62515,0.0264 -3.55572,0.0891 -4.29016,0.13928 -2.36662,0.16179 -5.12068,0.43784 -6.25056,0.62652 -1.37614,0.2298 -2.73732,0.32522 -3.57602,0.25067 z m 13.57873,-6.38336 c 0.98046,-0.14781 1.71693,-0.4887 2.20462,-1.02047 0.3014,-0.32864 0.60615,-0.95487 0.72233,-1.4843 0.12622,-0.57517 0.1662,-1.80542 0.0877,-2.69748 -0.2575,-2.9249 -0.9467,-5.30622 -1.78424,-6.16495 -0.54554,-0.55933 -1.01502,-0.54339 -1.56006,0.053 -0.58905,0.64451 -1.02678,1.78897 -1.4901,3.89587 -0.32983,1.49987 -0.96921,3.21004 -1.47495,3.94511 -0.0979,0.14235 -0.32495,0.35856 -0.50446,0.48047 -1.67424,1.13695 -1.11778,2.63982 1.11708,3.01695 0.46033,0.0777 2.10476,0.0628 2.68212,-0.0242 z m -9.88906,-2.98801 c 0.6091,-0.14467 1.46092,-0.56207 1.7801,-0.87228 1.99259,-1.93658 3.48156,-9.54916 2.70715,-13.84063 -0.0646,-0.35807 -0.19396,-0.84201 -0.28743,-1.07544 -0.47092,-1.17607 -1.39331,-2.03018 -2.49815,-2.31323 -0.50601,-0.12963 -1.47653,-0.0876 -1.98579,0.0859 -1.05775,0.3605 -2.10764,1.3222 -2.67161,2.4472 -0.83382,1.66332 -1.30434,4.44941 -1.30522,7.72871 -0.001,4.13689 0.76503,7.12118 1.97842,7.70627 0.57058,0.27512 1.46574,0.32747 2.28253,0.13347 z m 10.5134,-14.06922 c 0.3714,-3.23105 0.42168,-3.91868 0.34577,-4.72915 -0.0733,-0.78235 -0.19133,-1.28483 -0.41209,-1.75399 -0.19437,-0.41308 -0.63626,-0.89135 -0.94193,-1.01947 -0.72374,-0.30336 -2.2268,-0.63074 -3.12605,-0.68087 -0.67463,-0.0376 -1.01233,0.0221 -1.18142,0.20896 -0.0942,0.10408 -0.0971,0.13756 -0.029,0.32698 0.31504,0.87552 4.95911,10.18919 5.0402,10.1081 0.0135,-0.0135 0.1505,-1.12072 0.30451,-2.46056 z" id="path3190" transform="scale(0.75)"/>
  <path style="fill:#000000;fill-opacity:1;fill-rule:evenodd;stroke-width:2.26771;stroke-linejoin:bevel;paint-order:markers stroke fill" d="m 164.5072,174.29826 c -1.67418,-0.14639 -2.87711,-0.78335 -5.16067,-2.73264 -1.47615,-1.26006 -2.23386,-2.133 -2.78822,-3.21222 -0.83816,-1.63171 -1.21481,-3.52684 -1.58399,-7.96973 -0.14345,-1.72627 -0.14364,-5.88749 -3.4e-4,-7.15973 0.55579,-4.93422 2.11108,-8.21106 5.42281,-11.42531 2.00975,-1.95059 3.85722,-3.22673 5.38142,-3.71719 1.4635,-0.47094 3.4456,-0.61241 6.86931,-0.49029 4.91601,0.17535 7.85532,0.69586 9.31667,1.64984 0.68651,0.44815 0.87025,0.74827 1.15072,1.87959 0.90917,3.66723 2.23926,15.73948 2.70147,24.51924 0.0896,1.70162 0.0907,4.83089 0.002,5.33924 -0.0854,0.48905 -0.29944,0.89301 -0.60643,1.14457 -0.33807,0.27702 -1.10249,0.61701 -1.75797,0.78188 -1.13695,0.28598 -1.62369,0.32447 -4.77315,0.37743 -2.74999,0.0462 -3.66744,0.0841 -5.56868,0.23009 -1.70449,0.13084 -3.66783,0.3354 -4.65951,0.48548 -1.93208,0.29239 -3.05437,0.37766 -3.94537,0.29975 z m 13.38382,-6.35763 c 1.69296,-0.21227 2.67083,-0.94029 3.05228,-2.2724 0.27959,-0.97634 0.27122,-2.51573 -0.0244,-4.48904 -0.41739,-2.78627 -1.2522,-4.73729 -2.14095,-5.00357 -0.83183,-0.24922 -1.71154,1.03526 -2.27878,3.32729 -0.0619,0.25002 -0.18042,0.76143 -0.26344,1.13646 -0.30443,1.37529 -1.03262,3.27791 -1.47809,3.86194 -0.084,0.11009 -0.3144,0.31557 -0.51207,0.45662 -0.87157,0.62194 -1.13617,1.29462 -0.7643,1.94301 0.27357,0.47701 0.82738,0.79711 1.70484,0.9854 0.55753,0.11964 1.95933,0.14778 2.70489,0.0543 z m -9.31316,-3.13593 c 1.00454,-0.34496 1.49242,-0.71392 1.98137,-1.4984 1.82595,-2.92962 2.8846,-9.98325 2.03312,-13.5464 -0.13712,-0.57381 -0.58902,-1.4529 -0.95606,-1.85984 -0.65408,-0.7252 -1.41449,-1.09495 -2.34534,-1.14041 -0.88258,-0.0431 -1.56049,0.13382 -2.28261,0.59576 -0.41338,0.26443 -1.03225,0.86281 -1.34731,1.30269 -1.15998,1.61952 -1.80023,5.04541 -1.70816,9.14011 0.0857,3.80979 0.80396,6.39206 1.9401,6.97464 0.42813,0.21954 0.70721,0.26841 1.42314,0.24924 0.60398,-0.0162 0.74812,-0.041 1.26175,-0.21739 z m 10.13442,-13.97656 c 0.15303,-1.32317 0.3049,-2.77878 0.33749,-3.23469 0.14328,-2.0047 -0.26289,-3.50504 -1.1059,-4.08505 -0.40357,-0.27766 -1.75215,-0.64304 -2.95615,-0.80092 -0.91952,-0.12057 -1.60701,0.005 -1.66595,0.30448 -0.0321,0.16331 2.04164,4.46971 3.82312,7.93905 1.11269,2.16689 1.2162,2.35583 1.26434,2.30769 0.0136,-0.0136 0.15001,-1.10739 0.30305,-2.43056 z" id="path3229" transform="scale(0.75)"/>
  <path style="fill:#000000;fill-opacity:1;fill-rule:evenodd;stroke-width:2.26771;stroke-linejoin:bevel;paint-order:markers stroke fill" d="m 164.75906,174.32555 c -1.89258,-0.12311 -3.23279,-0.8341 -5.75537,-3.05324 -2.03311,-1.78856 -2.85306,-3.17048 -3.38995,-5.71331 -0.70579,-3.34282 -0.98496,-9.68869 -0.56835,-12.91924 0.43569,-3.37842 1.45704,-6.06901 3.19301,-8.41148 0.92829,-1.25259 2.32369,-2.68981 3.74634,-3.85858 2.21399,-1.81891 3.58425,-2.44616 5.95642,-2.72664 0.78809,-0.0932 4.71909,-0.0902 6.25056,0.005 4.12269,0.25559 6.56239,0.76642 7.85599,1.64488 0.41023,0.27858 0.61518,0.51199 0.78446,0.89339 1.25874,2.83589 3.57263,26.83001 2.97229,30.82138 -0.0685,0.45525 -0.28597,0.86492 -0.59258,1.11616 -0.33806,0.27702 -1.10249,0.61701 -1.75796,0.78188 -1.13325,0.28505 -1.62668,0.32433 -4.74475,0.3777 -3.40156,0.0582 -4.60168,0.12238 -7.50067,0.401 -1.46214,0.14052 -2.38896,0.25054 -3.29575,0.39122 -1.24974,0.19389 -2.49722,0.29283 -3.15369,0.25012 z m 13.85088,-6.51728 c 2.32165,-0.60647 2.91852,-2.32104 2.30771,-6.62908 -0.14806,-1.0443 -0.53856,-2.58866 -0.84038,-3.32361 -0.70247,-1.71057 -1.52311,-2.14412 -2.33475,-1.23348 -0.54677,0.61346 -0.95427,1.6587 -1.41695,3.63449 -0.52131,2.2262 -1.23407,4.02656 -1.76152,4.44947 -0.11102,0.089 -0.34021,0.2716 -0.5093,0.40574 -1.37043,1.08719 -0.77008,2.41014 1.27344,2.80622 0.2819,0.0546 0.73708,0.071 1.56264,0.0561 1.02335,-0.0185 1.23221,-0.0386 1.71911,-0.16581 z m -10.21419,-2.93579 c 1.36674,-0.43088 2.00899,-1.05033 2.70409,-2.60807 1.7576,-3.93887 2.36494,-11.01845 1.1524,-13.43334 -0.98687,-1.96545 -3.03279,-2.63045 -4.98084,-1.61894 -0.61576,0.31973 -1.4398,1.12292 -1.81923,1.77322 -1.03618,1.77588 -1.58964,5.01878 -1.49922,8.78445 0.052,2.16471 0.2785,3.82592 0.69513,5.09778 0.55664,1.69927 1.19013,2.20507 2.69644,2.15293 0.46431,-0.0161 0.7686,-0.0589 1.05123,-0.14803 z m 10.33976,-14.26241 c 0.14067,-1.23449 0.28133,-2.60247 0.31259,-3.03996 0.15199,-2.12748 -0.33097,-3.67973 -1.29847,-4.1733 -0.52755,-0.26914 -2.20958,-0.65494 -3.13717,-0.71956 -0.86286,-0.0601 -1.37051,0.11644 -1.27176,0.44228 0.17091,0.56397 4.37585,9.08111 4.93186,9.98953 l 0.12098,0.19765 0.0431,-0.22606 c 0.0237,-0.12434 0.15819,-1.2361 0.29886,-2.47058 z" id="path3268" transform="scale(0.75)"/>
  <path style="fill:#000000;fill-opacity:1;fill-rule:evenodd;stroke-width:2.26771;stroke-linejoin:bevel;paint-order:markers stroke fill" d="m 164.75906,174.32439 c -1.8777,-0.11446 -3.23316,-0.83327 -5.75537,-3.05208 -2.84772,-2.50518 -3.4636,-4.15551 -4.02112,-10.77499 -0.1225,-1.45442 -0.17127,-4.87757 -0.0881,-6.18306 0.36815,-5.77831 2.22015,-9.66487 6.33869,-13.30222 2.59423,-2.29114 4.05673,-3.03148 6.65117,-3.36695 0.7272,-0.094 4.86139,-0.0924 6.33579,0.003 3.6411,0.23439 5.83622,0.63229 7.25131,1.31441 0.87234,0.42049 1.28043,0.85478 1.50185,1.59826 0.916,3.07576 2.34447,15.65702 2.8443,25.0511 0.089,1.67304 0.0895,4.86088 8.5e-4,5.36765 -0.13475,0.77016 -0.46458,1.16042 -1.31849,1.56002 -0.57623,0.26966 -1.15064,0.42784 -2.09726,0.57756 -0.59494,0.0941 -1.18119,0.12087 -3.60975,0.16484 -4.33381,0.0785 -7.37995,0.29839 -10.65979,0.76961 -1.14348,0.16428 -2.84355,0.3326 -3.03315,0.3003 -0.0312,-0.005 -0.18467,-0.0175 -0.34094,-0.027 z m 13.666,-6.47063 c 2.12199,-0.46155 2.89995,-1.8845 2.68102,-4.90382 -0.23762,-3.27712 -1.10739,-6.05373 -2.08573,-6.65838 -0.99921,-0.61755 -1.98087,0.80372 -2.66938,3.86482 -0.26636,1.18417 -0.52681,2.05204 -0.88675,2.95481 -0.41647,1.04453 -0.66736,1.42621 -1.21549,1.84918 -0.81728,0.63066 -1.08957,1.19947 -0.84976,1.77512 0.23612,0.56679 1.05233,1.04705 2.0449,1.20322 0.51597,0.0812 2.4739,0.0254 2.98119,-0.0849 z m -10.43654,-2.89223 c 0.8542,-0.16343 1.66927,-0.57863 2.13388,-1.08698 1.49323,-1.63383 2.73866,-6.5892 2.74823,-10.93473 0.006,-2.83969 -0.37717,-4.20714 -1.47833,-5.27234 -1.16774,-1.12961 -3.03579,-1.229 -4.47597,-0.23813 -0.70776,0.48695 -1.38315,1.30029 -1.7576,2.11657 -0.92791,2.02282 -1.38457,5.68352 -1.16414,9.33193 0.16422,2.71819 0.69713,4.71847 1.48469,5.57287 0.47614,0.51656 1.44664,0.71412 2.50924,0.51081 z m 10.60385,-13.13344 c 0.34825,-2.91243 0.46252,-4.14466 0.46339,-4.99677 0.001,-1.33047 -0.17787,-2.12112 -0.6365,-2.80791 -0.37779,-0.56575 -0.82486,-0.78364 -2.26713,-1.10495 -1.40632,-0.31329 -2.46079,-0.32834 -2.74989,-0.0392 -0.1134,0.1134 -0.11339,0.11364 0.0212,0.44173 0.26101,0.63628 1.6757,3.54337 3.13235,6.43677 1.48668,2.95305 1.80168,3.55274 1.84397,3.51045 0.0128,-0.0128 0.0994,-0.66079 0.19261,-1.44008 z" id="path3307" transform="scale(0.75)"/>
  <path style="fill:#000000;fill-opacity:1;fill-rule:evenodd;stroke-width:2.26771;stroke-linejoin:bevel;paint-order:markers stroke fill" d="m 164.70224,174.32479 c -1.78076,-0.14337 -2.94732,-0.72642 -5.14251,-2.57021 -2.31992,-1.94855 -3.21921,-3.25346 -3.78041,-5.48554 -0.40875,-1.62576 -0.72479,-4.20637 -0.88429,-7.22072 -0.0747,-1.41255 -0.0389,-4.7871 0.0603,-5.68232 0.46245,-4.17225 1.55474,-7.01442 3.74522,-9.74519 0.54582,-0.68046 1.78542,-1.9565 2.56389,-2.63928 2.59528,-2.27627 4.03517,-3.00199 6.61991,-3.3365 0.71996,-0.0932 4.90771,-0.0915 6.36421,0.003 3.59733,0.23226 5.81496,0.63585 7.22289,1.31451 0.87964,0.424 1.27965,0.85323 1.50817,1.61833 0.91159,3.05201 2.34602,15.69423 2.83688,25.00262 0.0898,1.70337 0.091,4.88725 0.002,5.39606 -0.13475,0.77016 -0.46458,1.16042 -1.3185,1.56002 -1.14227,0.53455 -2.57969,0.74142 -5.16571,0.74342 -3.83745,0.003 -8.09645,0.30496 -11.59195,0.82191 -0.88824,0.13136 -2.36225,0.26824 -2.67069,0.248 -0.0781,-0.005 -0.24434,-0.0176 -0.36935,-0.0276 z m 3.57986,-9.42596 c 0.63547,-0.16777 1.38317,-0.5743 1.76003,-0.95695 1.16799,-1.18594 2.20413,-4.38106 2.68332,-8.27454 0.0788,-0.64 0.10153,-1.24891 0.10196,-2.72752 5.1e-4,-1.72232 -0.0115,-1.96964 -0.12569,-2.59733 -0.26789,-1.4721 -0.84591,-2.44181 -1.83756,-3.08274 -0.94891,-0.61331 -2.28647,-0.67394 -3.37558,-0.15301 -0.75823,0.36266 -1.44557,0.98385 -1.95121,1.76342 -1.07304,1.65437 -1.68868,5.14331 -1.58041,8.95646 0.0681,2.39915 0.34444,4.18718 0.84301,5.45504 0.42046,1.06922 0.91697,1.55602 1.74167,1.7076 0.36691,0.0674 1.33252,0.0173 1.74046,-0.0904 z" id="path3346" transform="scale(0.75)" sodipodi:nodetypes="cssscssscssssssscccsssscssssssss"/>
  <path style="fill:#000000;fill-opacity:1;fill-rule:evenodd;stroke-width:2.26771;stroke-linejoin:bevel;paint-order:markers stroke fill" d="m 175.51827,167.85629 c -0.52896,-0.089 -0.77502,-0.16637 -1.19023,-0.37406 -0.61744,-0.30886 -0.9129,-0.68711 -0.9129,-1.16868 0,-0.43143 0.19905,-0.68983 1.16946,-1.51813 0.28016,-0.23914 0.3681,-0.36867 0.6558,-0.966 0.46515,-0.96577 0.74147,-1.80193 1.16344,-3.52065 0.3979,-1.62068 0.55312,-2.103 0.89936,-2.79468 0.32506,-0.64934 0.52972,-0.92492 0.82682,-1.11334 0.43506,-0.27591 0.71907,-0.20658 1.15924,0.28299 0.78956,0.87819 1.45383,3.15421 1.69776,5.81716 0.0856,0.93491 0.0399,2.50721 -0.0864,2.96845 -0.32547,1.18874 -1.08296,1.93922 -2.26158,2.24066 -0.86114,0.22025 -2.2849,0.28698 -3.12075,0.14628 z" id="path3537" transform="scale(0.75)"/>
</svg>